name C:\Users\u0101727\Documents\MyRepositories\upper-imu-dc\Results\main_tracking\Case_24\SHRUG01_orientations_groundFrame.mot
datacolumns 13
datarows 21
range 2.38000000 2.58000000
endheader 
time	radius_imu_[0][0]	radius_imu_[0][1]	radius_imu_[0][2]	radius_imu_[1][0]	radius_imu_[1][1]	radius_imu_[1][2]	radius_imu_[2][0]	radius_imu_[2][1]	radius_imu_[2][2]	radius_imu_x	radius_imu_y	radius_imu_z	
          2.38000000	          0.55200460	         -0.14333029	          0.82143006	         -0.22776736	          0.92173387	          0.31389283	         -0.80213026	         -0.36036524	          0.47615537	         -0.58283195	          0.96391403	          0.25404408	
          2.39000000	          0.54534378	         -0.14512605	          0.82555351	         -0.23025389	          0.92107297	          0.31401867	         -0.80596731	         -0.36133503	          0.46888558	         -0.59010849	          0.97118233	          0.26009052	
          2.40000000	          0.55535844	         -0.14328740	          0.81917380	         -0.22968081	          0.92030169	          0.31668836	         -0.79926449	         -0.36402406	          0.47818695	         -0.58495184	          0.95996903	          0.25250209	
          2.41000000	          0.57210180	         -0.14111388	          0.80795198	         -0.22674792	          0.91948215	          0.32115100	         -0.78821629	         -0.36693249	          0.49404011	         -0.57641068	          0.94066814	          0.24183143	
          2.42000000	          0.58067725	         -0.14109188	          0.80181483	         -0.22448363	          0.91894149	          0.32427402	         -0.78257334	         -0.36829284	          0.50193560	         -0.57359133	          0.93032606	          0.23835901	
          2.43000000	          0.57075097	         -0.14529862	          0.80816560	         -0.22467990	          0.91902356	          0.32390530	         -0.78978622	         -0.36644784	          0.49188791	         -0.58232334	          0.94103076	          0.24927938	
          2.44000000	          0.56605486	         -0.14799246	          0.81097480	         -0.22333602	          0.91943331	          0.32367176	         -0.79353822	         -0.36433586	          0.48739765	         -0.58621074	          0.94581629	          0.25572149	
          2.45000000	          0.56927309	         -0.14998271	          0.80835224	         -0.21872182	          0.92015859	          0.32475982	         -0.79252061	         -0.36168130	          0.49101703	         -0.58434922	          0.94134772	          0.25760955	
          2.46000000	          0.57099236	         -0.15096937	          0.80695475	         -0.21413053	          0.92153289	          0.32392167	         -0.79253759	         -0.35775045	          0.49386109	         -0.58050910	          0.93897773	          0.25848336	
          2.47000000	          0.55372290	         -0.15266292	          0.81858719	         -0.21428134	          0.92382065	          0.31723638	         -0.80465798	         -0.35106901	          0.47882783	         -0.58513122	          0.95894698	          0.26901942	
          2.48000000	          0.52576015	         -0.15384689	          0.83660468	         -0.21719225	          0.92662977	          0.30689541	         -0.82243771	         -0.34305743	          0.45377066	         -0.59465780	          0.99105555	          0.28467064	
          2.49000000	          0.50306758	         -0.15244373	          0.85069614	         -0.21957901	          0.92947591	          0.29641119	         -0.83588759	         -0.33590988	          0.43411576	         -0.59908404	          1.01730819	          0.29423275	
          2.50000000	          0.48703007	         -0.14996341	          0.86041425	         -0.22054387	          0.93210600	          0.28729567	         -0.84508113	         -0.32968072	          0.42089015	         -0.59894601	          1.03608202	          0.29870149	
          2.51000000	          0.47702969	         -0.14721299	          0.86647043	         -0.22024408	          0.93439217	          0.28000682	         -0.85084383	         -0.32440655	          0.41331002	         -0.59544738	          1.04808829	          0.29933103	
          2.52000000	          0.47204214	         -0.14451801	          0.86964979	         -0.21916110	          0.93626488	          0.27454777	         -0.85389966	         -0.32019153	          0.41028376	         -0.58973063	          1.05449248	          0.29709387	
          2.53000000	          0.47114055	         -0.14199632	          0.87055363	         -0.21776758	          0.93768033	          0.27080043	         -0.85475369	         -0.31716342	          0.41085703	         -0.58275357	          1.05632630	          0.29273012	
          2.54000000	          0.47380797	         -0.13971681	          0.86947411	         -0.21634717	          0.93860684	          0.26872125	         -0.85363922	         -0.31543053	          0.41449206	         -0.57518948	          1.05413671	          0.28675357	
          2.55000000	          0.48016882	         -0.13775326	          0.86629207	         -0.21489759	          0.93902251	          0.26843202	         -0.85044514	         -0.31505676	          0.42128649	         -0.56730449	          1.04773112	          0.27938174	
          2.56000000	          0.49112328	         -0.13613416	          0.86038678	         -0.21310935	          0.93892108	          0.27020661	         -0.84461963	         -0.31606122	          0.43211454	         -0.55882397	          1.03602811	          0.27040051	
          2.57000000	          0.50825856	         -0.13464358	          0.85061410	         -0.21048216	          0.93832804	          0.27429502	         -0.83508712	         -0.31845188	          0.44857318	         -0.54882036	          1.01715214	          0.25896312	
          2.58000000	          0.53341724	         -0.13239169	          0.83542713	         -0.20667466	          0.93733865	          0.28050283	         -0.82021439	         -0.32228666	          0.47263059	         -0.53562102	          0.98890949	          0.24327947	
